<svg xmlns="http://www.w3.org/2000/svg" viewBox="1150.672 743.582 62.355 62.355" width="128" height="128">
<circle cx="1181.850" cy="774.760" r="17.337" fill="#fff"/>
<path fill-rule="nonzero" fill="rgb(93.717957%, 19.238281%, 22.003174%)" fill-opacity="1" d="M 1181.851562 743.582031 C 1164.628906 743.582031 1150.671875 757.542969 1150.671875 774.757812 C 1150.671875 791.976562 1164.628906 805.9375 1181.851562 805.9375 C 1199.070312 805.9375 1213.027344 791.976562 1213.027344 774.757812 C 1213.027344 757.542969 1199.070312 743.582031 1181.851562 743.582031 M 1198.886719 774.757812 C 1198.886719 784.171875 1191.257812 791.800781 1181.851562 791.800781 C 1172.4375 791.800781 1164.808594 784.171875 1164.808594 774.757812 C 1164.808594 765.347656 1172.4375 757.722656 1181.851562 757.722656 C 1191.257812 757.722656 1198.886719 765.347656 1198.886719 774.757812 "/>
<path fill-rule="nonzero" fill="rgb(13.729858%, 12.159729%, 12.548828%)" fill-opacity="1" d="M 1182.015625 770.421875 L 1181.960938 770.421875 L 1179.816406 776.769531 L 1184.128906 776.769531 Z M 1178.390625 780.738281 L 1177.011719 784.203125 L 1171.511719 784.203125 L 1179.183594 764.257812 L 1184.84375 764.257812 L 1192.359375 784.203125 L 1186.828125 784.203125 L 1185.53125 780.738281 Z M 1178.390625 780.738281 "/>
</svg>